<svg width="52" height="52" viewBox="0 0 52 52" fill="none" xmlns="http://www.w3.org/2000/svg">
<rect x="0.5" y="0.5" width="51" height="51" rx="7.5" fill="#F7F7F8"/>
<rect x="0.5" y="0.5" width="51" height="51" rx="7.5" stroke="#F1F1F3"/>
<g clip-path="url(#clip0_1_498)">
<path d="M21.5502 35.7502C30.6045 35.7502 35.5583 28.2469 35.5583 21.7421C35.5583 21.5312 35.5536 21.3155 35.5442 21.1046C36.5079 20.4077 37.3395 19.5445 38 18.5555C37.1025 18.9548 36.1496 19.2156 35.1739 19.329C36.2013 18.7132 36.9705 17.7457 37.3391 16.606C36.3726 17.1788 35.3156 17.5829 34.2134 17.8009C33.4708 17.0118 32.489 16.4894 31.4197 16.3143C30.3504 16.1392 29.2532 16.3213 28.2977 16.8323C27.3423 17.3434 26.5818 18.1549 26.1338 19.1416C25.6859 20.1282 25.5754 21.2349 25.8195 22.2905C23.8625 22.1923 21.9479 21.6839 20.2 20.7983C18.452 19.9127 16.9097 18.6697 15.673 17.1498C15.0444 18.2335 14.8521 19.5159 15.135 20.7363C15.418 21.9568 16.1551 23.0237 17.1964 23.7202C16.4146 23.6954 15.65 23.4849 14.9656 23.1062V23.1671C14.9649 24.3044 15.3581 25.4068 16.0783 26.287C16.7985 27.1672 17.8013 27.7708 18.9162 27.9952C18.1921 28.1934 17.432 28.2222 16.6948 28.0796C17.0095 29.0577 17.6216 29.9131 18.4458 30.5266C19.27 31.14 20.2651 31.4808 21.2923 31.5015C19.5484 32.8714 17.3942 33.6144 15.1766 33.6109C14.7833 33.6103 14.3904 33.5861 14 33.5387C16.2529 34.984 18.8735 35.7516 21.5502 35.7502Z" fill="#333333"/>
</g>
<defs>
<clipPath id="clip0_1_498">
<rect width="24" height="24" fill="white" transform="translate(14 14)"/>
</clipPath>
</defs>
</svg>
