<svg width="376" height="20" viewBox="0 0 376 20" fill="none" xmlns="http://www.w3.org/2000/svg">
<path d="M0.44 17V3.68H9.224V5.228H2.204V9.62H8.396V11.168H2.204V17H0.44ZM10.7541 17V7.46H12.4641V8.648H12.5361C12.7401 8.288 13.0401 7.97 13.4361 7.694C13.8321 7.418 14.3901 7.28 15.1101 7.28C15.3141 7.28 15.5001 7.292 15.6681 7.316C15.8361 7.328 15.9201 7.334 15.9201 7.334V8.972C15.9201 8.972 15.8241 8.966 15.6321 8.954C15.4521 8.93 15.2601 8.918 15.0561 8.918C14.2281 8.918 13.5861 9.158 13.1301 9.638C12.6861 10.106 12.4641 10.874 12.4641 11.942V17H10.7541ZM21.4203 17.18C20.6403 17.18 19.9623 17.042 19.3863 16.766C18.8223 16.478 18.3543 16.094 17.9823 15.614C17.6223 15.134 17.3523 14.606 17.1723 14.03C16.9923 13.442 16.9023 12.842 16.9023 12.23C16.9023 11.63 16.9863 11.036 17.1543 10.448C17.3343 9.86 17.6043 9.326 17.9643 8.846C18.3363 8.366 18.7983 7.988 19.3503 7.712C19.9143 7.424 20.5803 7.28 21.3483 7.28C22.1643 7.28 22.8843 7.466 23.5083 7.838C24.1323 8.21 24.6243 8.762 24.9843 9.494C25.3443 10.226 25.5243 11.144 25.5243 12.248V12.752H18.6303C18.6663 13.292 18.7923 13.79 19.0083 14.246C19.2363 14.69 19.5543 15.05 19.9623 15.326C20.3703 15.59 20.8563 15.722 21.4203 15.722C21.9123 15.722 22.3083 15.644 22.6083 15.488C22.9203 15.32 23.1663 15.128 23.3463 14.912C23.5263 14.696 23.6463 14.51 23.7063 14.354C23.7783 14.186 23.8143 14.102 23.8143 14.102H25.4163C25.4163 14.102 25.3863 14.21 25.3263 14.426C25.2663 14.63 25.1583 14.882 25.0023 15.182C24.8463 15.482 24.6183 15.788 24.3183 16.1C24.0183 16.4 23.6343 16.658 23.1663 16.874C22.6983 17.078 22.1163 17.18 21.4203 17.18ZM18.6483 11.42H23.8503C23.8263 10.796 23.6943 10.292 23.4543 9.908C23.2143 9.512 22.9083 9.218 22.5363 9.026C22.1643 8.834 21.7683 8.738 21.3483 8.738C20.5923 8.738 19.9743 8.984 19.4943 9.476C19.0143 9.956 18.7323 10.604 18.6483 11.42ZM32.1078 17.18C31.3278 17.18 30.6498 17.042 30.0738 16.766C29.5098 16.478 29.0418 16.094 28.6698 15.614C28.3098 15.134 28.0398 14.606 27.8598 14.03C27.6798 13.442 27.5898 12.842 27.5898 12.23C27.5898 11.63 27.6738 11.036 27.8418 10.448C28.0218 9.86 28.2918 9.326 28.6518 8.846C29.0238 8.366 29.4858 7.988 30.0378 7.712C30.6018 7.424 31.2678 7.28 32.0358 7.28C32.8518 7.28 33.5718 7.466 34.1958 7.838C34.8198 8.21 35.3118 8.762 35.6718 9.494C36.0318 10.226 36.2118 11.144 36.2118 12.248V12.752H29.3178C29.3538 13.292 29.4798 13.79 29.6958 14.246C29.9238 14.69 30.2418 15.05 30.6498 15.326C31.0578 15.59 31.5438 15.722 32.1078 15.722C32.5998 15.722 32.9958 15.644 33.2958 15.488C33.6078 15.32 33.8538 15.128 34.0338 14.912C34.2138 14.696 34.3338 14.51 34.3938 14.354C34.4658 14.186 34.5018 14.102 34.5018 14.102H36.1038C36.1038 14.102 36.0738 14.21 36.0138 14.426C35.9538 14.63 35.8458 14.882 35.6898 15.182C35.5338 15.482 35.3058 15.788 35.0058 16.1C34.7058 16.4 34.3218 16.658 33.8538 16.874C33.3858 17.078 32.8038 17.18 32.1078 17.18ZM29.3358 11.42H34.5378C34.5138 10.796 34.3818 10.292 34.1418 9.908C33.9018 9.512 33.5958 9.218 33.2238 9.026C32.8518 8.834 32.4558 8.738 32.0358 8.738C31.2798 8.738 30.6618 8.984 30.1818 9.476C29.7018 9.956 29.4198 10.604 29.3358 11.42ZM48.7236 17.18C47.6796 17.18 46.7616 16.988 45.9696 16.604C45.1776 16.208 44.5176 15.686 43.9896 15.038C43.4736 14.378 43.0836 13.646 42.8196 12.842C42.5556 12.026 42.4236 11.192 42.4236 10.34C42.4236 9.488 42.5556 8.654 42.8196 7.838C43.0836 7.022 43.4736 6.29 43.9896 5.642C44.5176 4.982 45.1776 4.46 45.9696 4.076C46.7616 3.692 47.6796 3.5 48.7236 3.5C49.5876 3.5 50.3256 3.614 50.9376 3.842C51.5616 4.058 52.0776 4.34 52.4856 4.688C52.9056 5.036 53.2416 5.408 53.4936 5.804C53.7576 6.2 53.9496 6.572 54.0696 6.92C54.2016 7.268 54.2856 7.556 54.3216 7.784C54.3696 8 54.3936 8.108 54.3936 8.108H52.6296C52.6296 8.108 52.6056 8.012 52.5576 7.82C52.5096 7.616 52.4136 7.37 52.2696 7.082C52.1256 6.782 51.9096 6.482 51.6216 6.182C51.3336 5.882 50.9556 5.636 50.4876 5.444C50.0196 5.24 49.4376 5.138 48.7416 5.138C47.9856 5.138 47.3256 5.288 46.7616 5.588C46.1976 5.876 45.7236 6.272 45.3396 6.776C44.9676 7.268 44.6856 7.826 44.4936 8.45C44.3136 9.062 44.2236 9.692 44.2236 10.34C44.2236 10.988 44.3136 11.624 44.4936 12.248C44.6856 12.86 44.9676 13.418 45.3396 13.922C45.7236 14.414 46.1976 14.81 46.7616 15.11C47.3256 15.398 47.9856 15.542 48.7416 15.542C49.4376 15.542 50.0196 15.44 50.4876 15.236C50.9556 15.032 51.3336 14.786 51.6216 14.498C51.9096 14.198 52.1256 13.904 52.2696 13.616C52.4136 13.316 52.5096 13.064 52.5576 12.86C52.6056 12.656 52.6296 12.554 52.6296 12.554H54.3936C54.3936 12.554 54.3696 12.668 54.3216 12.896C54.2856 13.112 54.2016 13.4 54.0696 13.76C53.9496 14.108 53.7576 14.48 53.4936 14.876C53.2416 15.26 52.9056 15.632 52.4856 15.992C52.0776 16.34 51.5616 16.628 50.9376 16.856C50.3256 17.072 49.5876 17.18 48.7236 17.18ZM61.1686 17.18C60.1486 17.18 59.2906 16.946 58.5946 16.478C57.8986 15.998 57.3706 15.38 57.0106 14.624C56.6506 13.868 56.4706 13.07 56.4706 12.23C56.4706 11.378 56.6506 10.58 57.0106 9.836C57.3706 9.08 57.8986 8.468 58.5946 8C59.2906 7.52 60.1486 7.28 61.1686 7.28C62.1886 7.28 63.0466 7.52 63.7426 8C64.4386 8.468 64.9666 9.08 65.3266 9.836C65.6866 10.58 65.8666 11.378 65.8666 12.23C65.8666 13.07 65.6866 13.868 65.3266 14.624C64.9666 15.38 64.4386 15.998 63.7426 16.478C63.0466 16.946 62.1886 17.18 61.1686 17.18ZM61.1686 15.686C61.8166 15.686 62.3566 15.524 62.7886 15.2C63.2326 14.864 63.5626 14.432 63.7786 13.904C64.0066 13.376 64.1206 12.818 64.1206 12.23C64.1206 11.63 64.0066 11.072 63.7786 10.556C63.5626 10.028 63.2326 9.602 62.7886 9.278C62.3566 8.942 61.8166 8.774 61.1686 8.774C60.5326 8.774 59.9926 8.942 59.5486 9.278C59.1046 9.602 58.7686 10.028 58.5406 10.556C58.3246 11.072 58.2166 11.63 58.2166 12.23C58.2166 12.818 58.3246 13.376 58.5406 13.904C58.7686 14.432 59.1046 14.864 59.5486 15.2C59.9926 15.524 60.5326 15.686 61.1686 15.686ZM71.3135 17.18C70.3655 17.18 69.6095 16.886 69.0455 16.298C68.4815 15.71 68.1995 14.894 68.1995 13.85V7.46H69.9095V13.76C69.9095 14.384 70.0775 14.864 70.4135 15.2C70.7615 15.536 71.2175 15.704 71.7815 15.704C72.3575 15.704 72.8195 15.554 73.1675 15.254C73.5155 14.954 73.7675 14.57 73.9235 14.102C74.0795 13.634 74.1575 13.154 74.1575 12.662V7.46H75.8675V17H74.1575V15.632H74.0495C73.9775 15.776 73.8395 15.974 73.6355 16.226C73.4315 16.466 73.1435 16.688 72.7715 16.892C72.3995 17.084 71.9135 17.18 71.3135 17.18ZM78.3948 17V7.46H80.1048V8.648H80.1768C80.3808 8.288 80.6808 7.97 81.0768 7.694C81.4728 7.418 82.0308 7.28 82.7508 7.28C82.9548 7.28 83.1408 7.292 83.3088 7.316C83.4768 7.328 83.5608 7.334 83.5608 7.334V8.972C83.5608 8.972 83.4648 8.966 83.2728 8.954C83.0928 8.93 82.9008 8.918 82.6968 8.918C81.8688 8.918 81.2268 9.158 80.7708 9.638C80.3268 10.106 80.1048 10.874 80.1048 11.942V17H78.3948ZM88.9356 17.18C88.2036 17.18 87.5976 17.078 87.1176 16.874C86.6496 16.67 86.2776 16.418 86.0016 16.118C85.7256 15.806 85.5216 15.5 85.3896 15.2C85.2576 14.888 85.1736 14.63 85.1376 14.426C85.1016 14.222 85.0836 14.12 85.0836 14.12H86.8116C86.8116 14.12 86.8296 14.204 86.8656 14.372C86.9136 14.528 87.0036 14.714 87.1356 14.93C87.2796 15.134 87.4956 15.32 87.7836 15.488C88.0836 15.644 88.4796 15.722 88.9716 15.722C89.5356 15.722 89.9736 15.59 90.2856 15.326C90.5976 15.05 90.7536 14.714 90.7536 14.318C90.7536 13.97 90.6276 13.694 90.3756 13.49C90.1356 13.286 89.7876 13.13 89.3316 13.022L88.0356 12.716C87.5556 12.596 87.1056 12.434 86.6856 12.23C86.2656 12.026 85.9236 11.75 85.6596 11.402C85.4076 11.042 85.2816 10.598 85.2816 10.07C85.2816 9.254 85.5876 8.588 86.1996 8.072C86.8116 7.544 87.6096 7.28 88.5936 7.28C89.2536 7.28 89.7996 7.376 90.2316 7.568C90.6636 7.748 91.0056 7.976 91.2576 8.252C91.5216 8.528 91.7136 8.804 91.8336 9.08C91.9656 9.356 92.0496 9.59 92.0856 9.782C92.1216 9.962 92.1396 10.052 92.1396 10.052H90.4836C90.4836 10.052 90.4656 9.986 90.4296 9.854C90.3936 9.71 90.3096 9.554 90.1776 9.386C90.0576 9.206 89.8716 9.05 89.6196 8.918C89.3676 8.774 89.0316 8.702 88.6116 8.702C88.0356 8.702 87.6156 8.834 87.3516 9.098C87.0876 9.362 86.9556 9.65 86.9556 9.962C86.9556 10.262 87.0756 10.508 87.3156 10.7C87.5676 10.88 87.8916 11.018 88.2876 11.114L89.6016 11.42C90.4176 11.612 91.0896 11.93 91.6176 12.374C92.1576 12.806 92.4276 13.43 92.4276 14.246C92.4276 14.774 92.2896 15.266 92.0136 15.722C91.7376 16.166 91.3416 16.52 90.8256 16.784C90.3096 17.048 89.6796 17.18 88.9356 17.18ZM98.7464 17.18C97.9664 17.18 97.2884 17.042 96.7124 16.766C96.1484 16.478 95.6804 16.094 95.3084 15.614C94.9484 15.134 94.6784 14.606 94.4984 14.03C94.3184 13.442 94.2284 12.842 94.2284 12.23C94.2284 11.63 94.3124 11.036 94.4804 10.448C94.6604 9.86 94.9304 9.326 95.2904 8.846C95.6624 8.366 96.1244 7.988 96.6764 7.712C97.2404 7.424 97.9064 7.28 98.6744 7.28C99.4904 7.28 100.21 7.466 100.834 7.838C101.458 8.21 101.95 8.762 102.31 9.494C102.67 10.226 102.85 11.144 102.85 12.248V12.752H95.9564C95.9924 13.292 96.1184 13.79 96.3344 14.246C96.5624 14.69 96.8804 15.05 97.2884 15.326C97.6964 15.59 98.1824 15.722 98.7464 15.722C99.2384 15.722 99.6344 15.644 99.9344 15.488C100.246 15.32 100.492 15.128 100.672 14.912C100.852 14.696 100.972 14.51 101.032 14.354C101.104 14.186 101.14 14.102 101.14 14.102H102.742C102.742 14.102 102.712 14.21 102.652 14.426C102.592 14.63 102.484 14.882 102.328 15.182C102.172 15.482 101.944 15.788 101.644 16.1C101.344 16.4 100.96 16.658 100.492 16.874C100.024 17.078 99.4424 17.18 98.7464 17.18ZM95.9744 11.42H101.176C101.152 10.796 101.02 10.292 100.78 9.908C100.54 9.512 100.234 9.218 99.8624 9.026C99.4904 8.834 99.0944 8.738 98.6744 8.738C97.9184 8.738 97.3004 8.984 96.8204 9.476C96.3404 9.956 96.0584 10.604 95.9744 11.42ZM108.676 17.18C107.944 17.18 107.338 17.078 106.858 16.874C106.39 16.67 106.018 16.418 105.742 16.118C105.466 15.806 105.262 15.5 105.13 15.2C104.998 14.888 104.914 14.63 104.878 14.426C104.842 14.222 104.824 14.12 104.824 14.12H106.552C106.552 14.12 106.57 14.204 106.606 14.372C106.654 14.528 106.744 14.714 106.876 14.93C107.02 15.134 107.236 15.32 107.524 15.488C107.824 15.644 108.22 15.722 108.712 15.722C109.276 15.722 109.714 15.59 110.026 15.326C110.338 15.05 110.494 14.714 110.494 14.318C110.494 13.97 110.368 13.694 110.116 13.49C109.876 13.286 109.528 13.13 109.072 13.022L107.776 12.716C107.296 12.596 106.846 12.434 106.426 12.23C106.006 12.026 105.664 11.75 105.4 11.402C105.148 11.042 105.022 10.598 105.022 10.07C105.022 9.254 105.328 8.588 105.94 8.072C106.552 7.544 107.35 7.28 108.334 7.28C108.994 7.28 109.54 7.376 109.972 7.568C110.404 7.748 110.746 7.976 110.998 8.252C111.262 8.528 111.454 8.804 111.574 9.08C111.706 9.356 111.79 9.59 111.826 9.782C111.862 9.962 111.88 10.052 111.88 10.052H110.224C110.224 10.052 110.206 9.986 110.17 9.854C110.134 9.71 110.05 9.554 109.918 9.386C109.798 9.206 109.612 9.05 109.36 8.918C109.108 8.774 108.772 8.702 108.352 8.702C107.776 8.702 107.356 8.834 107.092 9.098C106.828 9.362 106.696 9.65 106.696 9.962C106.696 10.262 106.816 10.508 107.056 10.7C107.308 10.88 107.632 11.018 108.028 11.114L109.342 11.42C110.158 11.612 110.83 11.93 111.358 12.374C111.898 12.806 112.168 13.43 112.168 14.246C112.168 14.774 112.03 15.266 111.754 15.722C111.478 16.166 111.082 16.52 110.566 16.784C110.05 17.048 109.42 17.18 108.676 17.18ZM117.213 18.26H135.213V0.26H117.213V18.26ZM145.265 17.18C144.497 17.18 143.837 17.084 143.285 16.892C142.745 16.688 142.295 16.43 141.935 16.118C141.575 15.794 141.287 15.458 141.071 15.11C140.855 14.762 140.693 14.432 140.585 14.12C140.477 13.796 140.405 13.538 140.369 13.346C140.345 13.142 140.333 13.04 140.333 13.04H142.133C142.133 13.04 142.151 13.124 142.187 13.292C142.223 13.46 142.295 13.67 142.403 13.922C142.523 14.174 142.697 14.432 142.925 14.696C143.153 14.948 143.459 15.158 143.843 15.326C144.227 15.494 144.713 15.578 145.301 15.578C146.189 15.578 146.891 15.368 147.407 14.948C147.923 14.516 148.181 13.958 148.181 13.274C148.181 12.686 147.983 12.23 147.587 11.906C147.203 11.582 146.651 11.33 145.931 11.15L144.167 10.718C143.543 10.562 142.961 10.346 142.421 10.07C141.893 9.782 141.467 9.41 141.143 8.954C140.831 8.486 140.675 7.904 140.675 7.208C140.675 6.428 140.867 5.762 141.251 5.21C141.635 4.658 142.157 4.238 142.817 3.95C143.477 3.65 144.227 3.5 145.067 3.5C145.883 3.5 146.561 3.626 147.101 3.878C147.641 4.13 148.073 4.442 148.397 4.814C148.721 5.174 148.961 5.54 149.117 5.912C149.273 6.272 149.375 6.578 149.423 6.83C149.471 7.082 149.495 7.208 149.495 7.208H147.767C147.767 7.208 147.743 7.1 147.695 6.884C147.647 6.668 147.533 6.422 147.353 6.146C147.173 5.858 146.897 5.606 146.525 5.39C146.153 5.174 145.649 5.066 145.013 5.066C144.149 5.066 143.495 5.27 143.051 5.678C142.619 6.086 142.403 6.554 142.403 7.082C142.403 7.562 142.577 7.952 142.925 8.252C143.273 8.54 143.753 8.762 144.365 8.918L146.273 9.386C146.957 9.554 147.575 9.8 148.127 10.124C148.679 10.436 149.117 10.844 149.441 11.348C149.765 11.84 149.927 12.446 149.927 13.166C149.927 13.886 149.747 14.552 149.387 15.164C149.039 15.776 148.517 16.268 147.821 16.64C147.137 17 146.285 17.18 145.265 17.18ZM156.187 7.28C156.787 7.28 157.291 7.376 157.699 7.568C158.107 7.76 158.437 7.988 158.689 8.252C158.941 8.504 159.133 8.744 159.265 8.972H159.373V7.46H161.083V17H159.373V15.488H159.265C159.133 15.716 158.941 15.962 158.689 16.226C158.437 16.49 158.107 16.718 157.699 16.91C157.291 17.09 156.787 17.18 156.187 17.18C155.467 17.18 154.837 17.042 154.297 16.766C153.757 16.478 153.307 16.1 152.947 15.632C152.587 15.152 152.317 14.618 152.137 14.03C151.957 13.442 151.867 12.842 151.867 12.23C151.867 11.618 151.957 11.018 152.137 10.43C152.317 9.842 152.587 9.314 152.947 8.846C153.307 8.366 153.757 7.988 154.297 7.712C154.837 7.424 155.467 7.28 156.187 7.28ZM156.475 8.738C155.839 8.738 155.305 8.912 154.873 9.26C154.441 9.596 154.117 10.028 153.901 10.556C153.697 11.084 153.595 11.642 153.595 12.23C153.595 12.806 153.697 13.364 153.901 13.904C154.117 14.432 154.441 14.87 154.873 15.218C155.305 15.554 155.839 15.722 156.475 15.722C157.111 15.722 157.639 15.554 158.059 15.218C158.491 14.87 158.809 14.432 159.013 13.904C159.229 13.364 159.337 12.806 159.337 12.23C159.337 11.642 159.229 11.084 159.013 10.556C158.809 10.028 158.491 9.596 158.059 9.26C157.639 8.912 157.111 8.738 156.475 8.738ZM163.776 17L163.794 3.32H165.486V17H163.776ZM172.522 17.18C171.742 17.18 171.064 17.042 170.488 16.766C169.924 16.478 169.456 16.094 169.084 15.614C168.724 15.134 168.454 14.606 168.274 14.03C168.094 13.442 168.004 12.842 168.004 12.23C168.004 11.63 168.088 11.036 168.256 10.448C168.436 9.86 168.706 9.326 169.066 8.846C169.438 8.366 169.9 7.988 170.452 7.712C171.016 7.424 171.682 7.28 172.45 7.28C173.266 7.28 173.986 7.466 174.61 7.838C175.234 8.21 175.726 8.762 176.086 9.494C176.446 10.226 176.626 11.144 176.626 12.248V12.752H169.732C169.768 13.292 169.894 13.79 170.11 14.246C170.338 14.69 170.656 15.05 171.064 15.326C171.472 15.59 171.958 15.722 172.522 15.722C173.014 15.722 173.41 15.644 173.71 15.488C174.022 15.32 174.268 15.128 174.448 14.912C174.628 14.696 174.748 14.51 174.808 14.354C174.88 14.186 174.916 14.102 174.916 14.102H176.518C176.518 14.102 176.488 14.21 176.428 14.426C176.368 14.63 176.26 14.882 176.104 15.182C175.948 15.482 175.72 15.788 175.42 16.1C175.12 16.4 174.736 16.658 174.268 16.874C173.8 17.078 173.218 17.18 172.522 17.18ZM169.75 11.42H174.952C174.928 10.796 174.796 10.292 174.556 9.908C174.316 9.512 174.01 9.218 173.638 9.026C173.266 8.834 172.87 8.738 172.45 8.738C171.694 8.738 171.076 8.984 170.596 9.476C170.116 9.956 169.834 10.604 169.75 11.42ZM183.288 17V3.68H191.748V5.228H185.052V9.44H190.92V10.988H185.052V15.452H191.838V17H183.288ZM194.27 17V7.46H195.98V8.846H196.088C196.172 8.702 196.31 8.504 196.502 8.252C196.706 8 196.994 7.778 197.366 7.586C197.738 7.382 198.206 7.28 198.77 7.28C199.466 7.28 200.06 7.442 200.552 7.766C201.044 8.078 201.416 8.504 201.668 9.044C201.932 9.584 202.064 10.19 202.064 10.862V17H200.354V10.97C200.354 10.334 200.174 9.806 199.814 9.386C199.466 8.966 198.956 8.756 198.284 8.756C197.744 8.756 197.306 8.894 196.97 9.17C196.634 9.434 196.382 9.788 196.214 10.232C196.058 10.664 195.98 11.126 195.98 11.618V17H194.27ZM208.728 17.18C208.008 17.18 207.378 17.042 206.838 16.766C206.298 16.478 205.848 16.1 205.488 15.632C205.128 15.152 204.858 14.618 204.678 14.03C204.498 13.442 204.408 12.842 204.408 12.23C204.408 11.618 204.498 11.018 204.678 10.43C204.858 9.842 205.128 9.314 205.488 8.846C205.848 8.366 206.298 7.988 206.838 7.712C207.378 7.424 208.008 7.28 208.728 7.28C209.328 7.28 209.832 7.376 210.24 7.568C210.648 7.76 210.978 7.988 211.23 8.252C211.482 8.504 211.674 8.744 211.806 8.972H211.914V3.32H213.624V17H211.914V15.488H211.806C211.674 15.716 211.482 15.962 211.23 16.226C210.978 16.49 210.648 16.718 210.24 16.91C209.832 17.09 209.328 17.18 208.728 17.18ZM209.016 15.722C209.652 15.722 210.18 15.554 210.6 15.218C211.032 14.87 211.35 14.432 211.554 13.904C211.77 13.364 211.878 12.806 211.878 12.23C211.878 11.642 211.77 11.084 211.554 10.556C211.35 10.028 211.032 9.596 210.6 9.26C210.18 8.912 209.652 8.738 209.016 8.738C208.38 8.738 207.846 8.912 207.414 9.26C206.982 9.596 206.658 10.028 206.442 10.556C206.238 11.084 206.136 11.642 206.136 12.23C206.136 12.806 206.238 13.364 206.442 13.904C206.658 14.432 206.982 14.87 207.414 15.218C207.846 15.554 208.38 15.722 209.016 15.722ZM219.822 17.18C219.09 17.18 218.484 17.078 218.004 16.874C217.536 16.67 217.164 16.418 216.888 16.118C216.612 15.806 216.408 15.5 216.276 15.2C216.144 14.888 216.06 14.63 216.024 14.426C215.988 14.222 215.97 14.12 215.97 14.12H217.698C217.698 14.12 217.716 14.204 217.752 14.372C217.8 14.528 217.89 14.714 218.022 14.93C218.166 15.134 218.382 15.32 218.67 15.488C218.97 15.644 219.366 15.722 219.858 15.722C220.422 15.722 220.86 15.59 221.172 15.326C221.484 15.05 221.64 14.714 221.64 14.318C221.64 13.97 221.514 13.694 221.262 13.49C221.022 13.286 220.674 13.13 220.218 13.022L218.922 12.716C218.442 12.596 217.992 12.434 217.572 12.23C217.152 12.026 216.81 11.75 216.546 11.402C216.294 11.042 216.168 10.598 216.168 10.07C216.168 9.254 216.474 8.588 217.086 8.072C217.698 7.544 218.496 7.28 219.48 7.28C220.14 7.28 220.686 7.376 221.118 7.568C221.55 7.748 221.892 7.976 222.144 8.252C222.408 8.528 222.6 8.804 222.72 9.08C222.852 9.356 222.936 9.59 222.972 9.782C223.008 9.962 223.026 10.052 223.026 10.052H221.37C221.37 10.052 221.352 9.986 221.316 9.854C221.28 9.71 221.196 9.554 221.064 9.386C220.944 9.206 220.758 9.05 220.506 8.918C220.254 8.774 219.918 8.702 219.498 8.702C218.922 8.702 218.502 8.834 218.238 9.098C217.974 9.362 217.842 9.65 217.842 9.962C217.842 10.262 217.962 10.508 218.202 10.7C218.454 10.88 218.778 11.018 219.174 11.114L220.488 11.42C221.304 11.612 221.976 11.93 222.504 12.374C223.044 12.806 223.314 13.43 223.314 14.246C223.314 14.774 223.176 15.266 222.9 15.722C222.624 16.166 222.228 16.52 221.712 16.784C221.196 17.048 220.566 17.18 219.822 17.18ZM234.263 17.18C233.495 17.18 232.835 17.084 232.283 16.892C231.743 16.688 231.293 16.43 230.933 16.118C230.573 15.794 230.285 15.458 230.069 15.11C229.853 14.762 229.691 14.432 229.583 14.12C229.475 13.796 229.403 13.538 229.367 13.346C229.343 13.142 229.331 13.04 229.331 13.04H231.131C231.131 13.04 231.149 13.124 231.185 13.292C231.221 13.46 231.293 13.67 231.401 13.922C231.521 14.174 231.695 14.432 231.923 14.696C232.151 14.948 232.457 15.158 232.841 15.326C233.225 15.494 233.711 15.578 234.299 15.578C235.187 15.578 235.889 15.368 236.405 14.948C236.921 14.516 237.179 13.958 237.179 13.274C237.179 12.686 236.981 12.23 236.585 11.906C236.201 11.582 235.649 11.33 234.929 11.15L233.165 10.718C232.541 10.562 231.959 10.346 231.419 10.07C230.891 9.782 230.465 9.41 230.141 8.954C229.829 8.486 229.673 7.904 229.673 7.208C229.673 6.428 229.865 5.762 230.249 5.21C230.633 4.658 231.155 4.238 231.815 3.95C232.475 3.65 233.225 3.5 234.065 3.5C234.881 3.5 235.559 3.626 236.099 3.878C236.639 4.13 237.071 4.442 237.395 4.814C237.719 5.174 237.959 5.54 238.115 5.912C238.271 6.272 238.373 6.578 238.421 6.83C238.469 7.082 238.493 7.208 238.493 7.208H236.765C236.765 7.208 236.741 7.1 236.693 6.884C236.645 6.668 236.531 6.422 236.351 6.146C236.171 5.858 235.895 5.606 235.523 5.39C235.151 5.174 234.647 5.066 234.011 5.066C233.147 5.066 232.493 5.27 232.049 5.678C231.617 6.086 231.401 6.554 231.401 7.082C231.401 7.562 231.575 7.952 231.923 8.252C232.271 8.54 232.751 8.762 233.363 8.918L235.271 9.386C235.955 9.554 236.573 9.8 237.125 10.124C237.677 10.436 238.115 10.844 238.439 11.348C238.763 11.84 238.925 12.446 238.925 13.166C238.925 13.886 238.745 14.552 238.385 15.164C238.037 15.776 237.515 16.268 236.819 16.64C236.135 17 235.283 17.18 234.263 17.18ZM245.563 17.18C244.543 17.18 243.685 16.946 242.989 16.478C242.293 15.998 241.765 15.38 241.405 14.624C241.045 13.868 240.865 13.07 240.865 12.23C240.865 11.378 241.045 10.58 241.405 9.836C241.765 9.08 242.293 8.468 242.989 8C243.685 7.52 244.543 7.28 245.563 7.28C246.583 7.28 247.441 7.52 248.137 8C248.833 8.468 249.361 9.08 249.721 9.836C250.081 10.58 250.261 11.378 250.261 12.23C250.261 13.07 250.081 13.868 249.721 14.624C249.361 15.38 248.833 15.998 248.137 16.478C247.441 16.946 246.583 17.18 245.563 17.18ZM245.563 15.686C246.211 15.686 246.751 15.524 247.183 15.2C247.627 14.864 247.957 14.432 248.173 13.904C248.401 13.376 248.515 12.818 248.515 12.23C248.515 11.63 248.401 11.072 248.173 10.556C247.957 10.028 247.627 9.602 247.183 9.278C246.751 8.942 246.211 8.774 245.563 8.774C244.927 8.774 244.387 8.942 243.943 9.278C243.499 9.602 243.163 10.028 242.935 10.556C242.719 11.072 242.611 11.63 242.611 12.23C242.611 12.818 242.719 13.376 242.935 13.904C243.163 14.432 243.499 14.864 243.943 15.2C244.387 15.524 244.927 15.686 245.563 15.686ZM257.024 17.18C256.004 17.18 255.146 16.946 254.45 16.478C253.754 15.998 253.226 15.38 252.866 14.624C252.506 13.868 252.326 13.07 252.326 12.23C252.326 11.378 252.506 10.58 252.866 9.836C253.226 9.08 253.754 8.468 254.45 8C255.146 7.52 256.004 7.28 257.024 7.28C258.044 7.28 258.902 7.52 259.598 8C260.294 8.468 260.822 9.08 261.182 9.836C261.542 10.58 261.722 11.378 261.722 12.23C261.722 13.07 261.542 13.868 261.182 14.624C260.822 15.38 260.294 15.998 259.598 16.478C258.902 16.946 258.044 17.18 257.024 17.18ZM257.024 15.686C257.672 15.686 258.212 15.524 258.644 15.2C259.088 14.864 259.418 14.432 259.634 13.904C259.862 13.376 259.976 12.818 259.976 12.23C259.976 11.63 259.862 11.072 259.634 10.556C259.418 10.028 259.088 9.602 258.644 9.278C258.212 8.942 257.672 8.774 257.024 8.774C256.388 8.774 255.848 8.942 255.404 9.278C254.96 9.602 254.624 10.028 254.396 10.556C254.18 11.072 254.072 11.63 254.072 12.23C254.072 12.818 254.18 13.376 254.396 13.904C254.624 14.432 254.96 14.864 255.404 15.2C255.848 15.524 256.388 15.686 257.024 15.686ZM264.055 17V7.46H265.765V8.846H265.873C265.957 8.702 266.095 8.504 266.287 8.252C266.491 8 266.779 7.778 267.151 7.586C267.523 7.382 267.991 7.28 268.555 7.28C269.251 7.28 269.845 7.442 270.337 7.766C270.829 8.078 271.201 8.504 271.453 9.044C271.717 9.584 271.849 10.19 271.849 10.862V17H270.139V10.97C270.139 10.334 269.959 9.806 269.599 9.386C269.251 8.966 268.741 8.756 268.069 8.756C267.529 8.756 267.091 8.894 266.755 9.17C266.419 9.434 266.167 9.788 265.999 10.232C265.843 10.664 265.765 11.126 265.765 11.618V17H264.055ZM274.517 19.214L275.813 17.126C275.525 17.102 275.279 16.982 275.075 16.766C274.883 16.55 274.787 16.286 274.787 15.974C274.787 15.626 274.907 15.35 275.147 15.146C275.387 14.942 275.657 14.84 275.957 14.84C276.293 14.84 276.575 14.942 276.803 15.146C277.043 15.35 277.163 15.638 277.163 16.01C277.163 16.346 277.031 16.73 276.767 17.162C276.515 17.594 276.107 18.218 275.543 19.034L275.417 19.214H274.517ZM290.091 17.18C289.011 17.18 288.069 16.988 287.265 16.604C286.461 16.22 285.795 15.704 285.267 15.056C284.739 14.396 284.343 13.664 284.079 12.86C283.827 12.044 283.701 11.21 283.701 10.358C283.701 9.506 283.827 8.672 284.079 7.856C284.343 7.04 284.739 6.308 285.267 5.66C285.807 5 286.479 4.478 287.283 4.094C288.099 3.698 289.053 3.5 290.145 3.5C290.985 3.5 291.705 3.608 292.305 3.824C292.917 4.04 293.427 4.316 293.835 4.652C294.243 4.988 294.573 5.348 294.825 5.732C295.077 6.104 295.269 6.458 295.401 6.794C295.533 7.13 295.617 7.406 295.653 7.622C295.701 7.838 295.725 7.946 295.725 7.946H293.943C293.943 7.946 293.919 7.85 293.871 7.658C293.823 7.466 293.727 7.232 293.583 6.956C293.439 6.668 293.223 6.386 292.935 6.11C292.659 5.822 292.293 5.582 291.837 5.39C291.393 5.198 290.835 5.102 290.163 5.102C289.371 5.102 288.681 5.252 288.093 5.552C287.505 5.852 287.019 6.254 286.635 6.758C286.251 7.25 285.963 7.808 285.771 8.432C285.579 9.044 285.483 9.674 285.483 10.322C285.483 10.982 285.579 11.63 285.771 12.266C285.963 12.89 286.251 13.454 286.635 13.958C287.031 14.45 287.517 14.846 288.093 15.146C288.669 15.434 289.335 15.578 290.091 15.578C291.327 15.578 292.305 15.218 293.025 14.498C293.757 13.766 294.153 12.782 294.213 11.546H290.253V10.088H295.905V11.006C295.905 12.374 295.641 13.514 295.113 14.426C294.597 15.338 293.901 16.028 293.025 16.496C292.149 16.952 291.171 17.18 290.091 17.18ZM302.407 17.18C301.627 17.18 300.949 17.042 300.373 16.766C299.809 16.478 299.341 16.094 298.969 15.614C298.609 15.134 298.339 14.606 298.159 14.03C297.979 13.442 297.889 12.842 297.889 12.23C297.889 11.63 297.973 11.036 298.141 10.448C298.321 9.86 298.591 9.326 298.951 8.846C299.323 8.366 299.785 7.988 300.337 7.712C300.901 7.424 301.567 7.28 302.335 7.28C303.151 7.28 303.871 7.466 304.495 7.838C305.119 8.21 305.611 8.762 305.971 9.494C306.331 10.226 306.511 11.144 306.511 12.248V12.752H299.617C299.653 13.292 299.779 13.79 299.995 14.246C300.223 14.69 300.541 15.05 300.949 15.326C301.357 15.59 301.843 15.722 302.407 15.722C302.899 15.722 303.295 15.644 303.595 15.488C303.907 15.32 304.153 15.128 304.333 14.912C304.513 14.696 304.633 14.51 304.693 14.354C304.765 14.186 304.801 14.102 304.801 14.102H306.403C306.403 14.102 306.373 14.21 306.313 14.426C306.253 14.63 306.145 14.882 305.989 15.182C305.833 15.482 305.605 15.788 305.305 16.1C305.005 16.4 304.621 16.658 304.153 16.874C303.685 17.078 303.103 17.18 302.407 17.18ZM299.635 11.42H304.837C304.813 10.796 304.681 10.292 304.441 9.908C304.201 9.512 303.895 9.218 303.523 9.026C303.151 8.834 302.755 8.738 302.335 8.738C301.579 8.738 300.961 8.984 300.481 9.476C300.001 9.956 299.719 10.604 299.635 11.42ZM312.718 17.18C311.734 17.18 310.99 16.928 310.486 16.424C309.994 15.92 309.748 15.212 309.748 14.3V8.864H308.038V7.46H309.748V5.066H311.458V7.46H313.78V8.864H311.458V14.3C311.458 14.78 311.59 15.134 311.854 15.362C312.118 15.578 312.502 15.686 313.006 15.686C313.27 15.686 313.522 15.668 313.762 15.632C314.002 15.596 314.122 15.578 314.122 15.578V17.036C314.122 17.036 313.984 17.06 313.708 17.108C313.432 17.156 313.102 17.18 312.718 17.18ZM320.696 17V3.68H322.46V17H320.696ZM329.206 17.18C328.222 17.18 327.478 16.928 326.974 16.424C326.482 15.92 326.236 15.212 326.236 14.3V8.864H324.526V7.46H326.236V5.066H327.946V7.46H330.268V8.864H327.946V14.3C327.946 14.78 328.078 15.134 328.342 15.362C328.606 15.578 328.99 15.686 329.494 15.686C329.758 15.686 330.01 15.668 330.25 15.632C330.49 15.596 330.61 15.578 330.61 15.578V17.036C330.61 17.036 330.472 17.06 330.196 17.108C329.92 17.156 329.59 17.18 329.206 17.18ZM337.184 17V3.68H338.768L345.716 13.814V3.68H347.48V17H345.896L338.948 6.884V17H337.184ZM354.706 17.18C353.686 17.18 352.828 16.946 352.132 16.478C351.436 15.998 350.908 15.38 350.548 14.624C350.188 13.868 350.008 13.07 350.008 12.23C350.008 11.378 350.188 10.58 350.548 9.836C350.908 9.08 351.436 8.468 352.132 8C352.828 7.52 353.686 7.28 354.706 7.28C355.726 7.28 356.584 7.52 357.28 8C357.976 8.468 358.504 9.08 358.864 9.836C359.224 10.58 359.404 11.378 359.404 12.23C359.404 13.07 359.224 13.868 358.864 14.624C358.504 15.38 357.976 15.998 357.28 16.478C356.584 16.946 355.726 17.18 354.706 17.18ZM354.706 15.686C355.354 15.686 355.894 15.524 356.326 15.2C356.77 14.864 357.1 14.432 357.316 13.904C357.544 13.376 357.658 12.818 357.658 12.23C357.658 11.63 357.544 11.072 357.316 10.556C357.1 10.028 356.77 9.602 356.326 9.278C355.894 8.942 355.354 8.774 354.706 8.774C354.07 8.774 353.53 8.942 353.086 9.278C352.642 9.602 352.306 10.028 352.078 10.556C351.862 11.072 351.754 11.63 351.754 12.23C351.754 12.818 351.862 13.376 352.078 13.904C352.306 14.432 352.642 14.864 353.086 15.2C353.53 15.524 354.07 15.686 354.706 15.686ZM363.833 17L360.755 7.46H362.501L364.769 14.696L367.145 7.46H368.765L371.123 14.696L373.409 7.46H375.155L372.059 17H370.223L367.955 9.962L365.687 17H363.833Z" fill="white"/>
</svg>
